<?xml version="1.0" encoding="iso-8859-1"?>
<!-- Generator: Adobe Illustrator 19.0.0, SVG Export Plug-In . SVG Version: 6.00 Build 0)  -->
<svg version="1.1" id="Layer_1" xmlns="http://www.w3.org/2000/svg" xmlns:xlink="http://www.w3.org/1999/xlink" x="0px" y="0px"
	 viewBox="0 0 295.237 295.237" style="enable-background:new 0 0 295.237 295.237;" xml:space="preserve">
<g>
	<g>
		<g>
			<path d="M240.476,247.619h-33.333v-32.333l1.005-0.567c24.971-14.048,41.948-39.243,45.738-67.629
				c6.519-7.69,10.4-17.743,10.4-28.529v-20.31c0-9.505-4.457-17.052-11.295-20.31C244.69,32.624,205.886,0,159.524,0
				c-25.8,0-49.814,10.129-67.852,28.571H40.476v4.762c0,18.957,10.157,35.548,25.281,44.743c-3.49,1.652-6.367,4.324-8.31,7.638H50
				c-7.876,0-14.286,6.41-14.286,14.286v5.19c-13.49,2.281-23.81,14.014-23.81,28.143v38.095c0,15.757,12.814,28.571,28.571,28.571
				h4.762c10.505,0,19.048,8.543,19.048,19.048v31.071c-16.619,5.905-28.571,21.743-28.571,40.357v4.762h9.524v-4.762
				c0-13.262,7.805-24.71,19.048-30.071v34.833h9.524v-37.714c1.562-0.224,3.143-0.381,4.762-0.381h36.462l44.49,34.605
				l44.49-34.605h36.462c18.376,0,33.333,14.952,33.333,33.333v4.762h9.524v-4.762C283.333,266.848,264.11,247.619,240.476,247.619z
				 M50.267,38.095h45.5l1.414-1.505c16.367-17.452,38.51-27.067,62.343-27.067c39.824,0,74.657,28.219,83.452,66.59
				c-11.619-0.805-21.881-8.024-26.519-18.843l-9.314-21.748l-9.314,21.743c-4.929,11.495-16.19,18.924-28.695,18.924H92.857
				C70.833,76.19,52.643,59.495,50.267,38.095z M219.071,76.19h-23.857c4.824-4.029,8.781-9.143,11.367-15.171l0.562-1.305
				l0.562,1.31C210.29,67.048,214.252,72.162,219.071,76.19z M64.285,95.324c0-5.3,4.31-9.61,9.61-9.61h18.962h76.276h76.024
				c5.833,0,9.605,4.919,9.605,12.538v20.31c0,15.21-9.748,28.567-23.705,32.471c-11.429,3.19-22.952,0.648-31.624-6.986
				l-1.343-1.19h-77.133l-1.348,1.19c-7.724,6.805-18.043,9.629-28.267,7.757c-15.676-2.862-27.057-17.186-27.057-34.062V95.324z
				 M45.238,100c0-2.624,2.133-4.762,4.762-4.762h4.762v0.086v22.419v6.067H50c-2.629,0-4.762-2.052-4.762-4.676V100z
				 M111.906,247.619H78.571c-1.609,0-3.195,0.105-4.761,0.281v-28.852c0-15.757-12.814-28.571-28.571-28.571h-4.762
				c-10.505,0-19.048-8.543-19.048-19.048v-38.095c0-8.848,6.09-16.243,14.286-18.371v4.171c0,7.876,6.41,14.2,14.286,14.2h7.51
				c1.771,4.762,4.362,9.414,7.6,13.314c3.681,28.557,20.681,53.929,45.79,68.052l1.005,0.586V247.619z M197.619,250.052
				l-38.095,29.629l-38.095-29.629v-29.41l9.024,5.076c8.857,4.981,18.91,7.614,29.071,7.614c10.162,0,20.214-2.633,29.071-7.614
				l9.024-5.076V250.052z M203.476,206.419l-19.548,11c-14.871,8.362-33.938,8.362-48.81,0l-19.548-11
				c-19.214-10.81-33.119-28.962-38.824-49.971c3.938,2.238,8.257,3.881,12.89,4.729c12.524,2.286,25.11-0.914,34.862-8.795h70.052
				c7.733,6.271,17.057,9.538,26.795,9.533c4.052,0,8.176-0.567,12.281-1.714c3.048-0.852,5.924-2.076,8.629-3.571
				C236.51,177.562,222.619,195.652,203.476,206.419z"/>
			<rect x="83.333" y="119.048" width="128.571" height="9.524"/>
			<rect x="221.429" y="119.048" width="14.286" height="9.524"/>
		</g>
	</g>
</g>
<g>
</g>
<g>
</g>
<g>
</g>
<g>
</g>
<g>
</g>
<g>
</g>
<g>
</g>
<g>
</g>
<g>
</g>
<g>
</g>
<g>
</g>
<g>
</g>
<g>
</g>
<g>
</g>
<g>
</g>
</svg>
