<?xml version="1.0" encoding="iso-8859-1"?>
<!-- Generator: Adobe Illustrator 19.0.0, SVG Export Plug-In . SVG Version: 6.00 Build 0)  -->
<svg version="1.1" id="Layer_1" xmlns="http://www.w3.org/2000/svg" xmlns:xlink="http://www.w3.org/1999/xlink" x="0px" y="0px"
	 viewBox="0 0 489.044 489.044" style="enable-background:new 0 0 489.044 489.044;" xml:space="preserve">
<g>
	<g>
		<polygon id="XMLID_1304_" style="fill:#94A4A4;" points="430.218,103.044 199.018,8.944 230.318,103.044 198.918,197.044 		"/>
		<path style="fill:#2C2F33;" d="M439.318,103.044c0-0.6-0.1-1.1-0.2-1.6c0-0.2-0.1-0.3-0.1-0.5c-0.1-0.4-0.2-0.7-0.3-1.1
			c-0.1-0.2-0.1-0.3-0.2-0.5c-0.2-0.5-0.4-0.9-0.7-1.4c0,0,0,0-0.1-0.1c-0.3-0.4-0.6-0.8-0.9-1.1c-0.1-0.1-0.2-0.2-0.3-0.3
			c-0.3-0.3-0.6-0.5-0.9-0.7c-0.1-0.1-0.3-0.2-0.4-0.3c-0.3-0.2-0.7-0.4-1.1-0.6c-0.1-0.1-0.2-0.1-0.3-0.2l0,0l-231.2-94
			c-3.3-1.3-7-0.6-9.6,1.8s-3.5,6.1-2.4,9.5l30.3,91.2l-30.5,91.2c-1.1,3.4-0.2,7.1,2.4,9.5c1.7,1.6,3.9,2.5,6.2,2.5
			c1.1,0,2.3-0.2,3.4-0.7l231.4-94c0,0,0,0,0.1,0s0.2-0.1,0.3-0.2c0.4-0.2,0.8-0.4,1.1-0.6c0.1-0.1,0.3-0.2,0.4-0.3
			c0.3-0.2,0.6-0.5,0.9-0.7c0.1-0.1,0.2-0.2,0.3-0.3c0.4-0.4,0.7-0.8,1-1.2l0,0c0.3-0.4,0.5-0.9,0.7-1.4c0.1-0.2,0.1-0.3,0.2-0.5
			c0.1-0.4,0.2-0.7,0.3-1.1c0-0.2,0.1-0.3,0.1-0.5C439.218,104.144,439.318,103.544,439.318,103.044L439.318,103.044
			L439.318,103.044L439.318,103.044z M213.818,24.744l170.1,69.2h-147.1L213.818,24.744z M236.818,112.044h147l-170.1,69.2
			L236.818,112.044z"/>
		<path style="fill:#2C2F33;" d="M153.018,488.944c2.4,0,4.7-1,6.4-2.7s2.7-4,2.7-6.4s-1-4.7-2.7-6.4c-1.7-1.7-4-2.7-6.4-2.7
			s-4.7,1-6.4,2.7s-2.7,4-2.7,6.4s1,4.7,2.7,6.4C148.318,488.044,150.618,488.944,153.018,488.944z"/>
		<path style="fill:#2C2F33;" d="M401.318,462.744c2.3,0,4.5-0.8,6.3-2.5c3.6-3.5,3.7-9.2,0.2-12.8c-3.5-3.6-9.2-3.7-12.8-0.3
			c-3.6,3.5-3.7,9.2-0.3,12.8C396.518,461.744,398.918,462.744,401.318,462.744z"/>
		<path style="fill:#2C2F33;" d="M416.118,436.244c1.3,0.7,2.7,1,4.1,1c3.3,0,6.5-1.8,8.1-5c2.3-4.5,0.5-9.9-4-12.2
			c-4.5-2.3-9.9-0.5-12.2,4C409.818,428.544,411.618,433.944,416.118,436.244z"/>
		<path style="fill:#2C2F33;" d="M421.218,344.344c4.3-2.6,5.6-8.2,3-12.4c-2.6-4.3-8.2-5.6-12.5-3s-5.6,8.2-3,12.5
			c1.7,2.8,4.7,4.3,7.7,4.3C418.118,345.644,419.718,345.244,421.218,344.344z"/>
		<path style="fill:#2C2F33;" d="M419.318,367.944c0.9,4.3,4.7,7.2,8.8,7.2c0.6,0,1.3-0.1,1.9-0.2c4.9-1,8-5.8,7-10.7
			c-1-4.9-5.8-8-10.7-7C421.418,358.244,418.318,363.044,419.318,367.944z"/>
		<path style="fill:#2C2F33;" d="M402.618,318.444c3.2-3.9,2.6-9.6-1.3-12.8c-3.9-3.2-9.6-2.6-12.8,1.3c-3.2,3.9-2.6,9.6,1.3,12.8
			c1.7,1.4,3.7,2,5.7,2C398.218,321.744,400.818,320.644,402.618,318.444z"/>
		<path style="fill:#2C2F33;" d="M49.818,212.444c0.7,4.5,4.6,7.8,9,7.8c0.4,0,0.9,0,1.3-0.1c5-0.7,8.4-5.3,7.7-10.3
			s-5.3-8.4-10.3-7.7S49.118,207.444,49.818,212.444z"/>
		<path style="fill:#2C2F33;" d="M75.218,141.844c-4.3-2.5-9.9-1.1-12.4,3.2c-2.5,4.3-1.1,9.9,3.2,12.4c1.4,0.8,3,1.2,4.6,1.2
			c3.1,0,6.1-1.6,7.8-4.5C81.018,149.944,79.618,144.344,75.218,141.844z"/>
		<path style="fill:#2C2F33;" d="M88.018,275.444c2.4,0,4.9-1,6.6-2.9c3.4-3.7,3.2-9.4-0.5-12.8s-9.4-3.2-12.8,0.5
			s-3.2,9.4,0.5,12.8C83.618,274.644,85.818,275.444,88.018,275.444z"/>
		<path style="fill:#2C2F33;" d="M118.218,275.444c-4.6-2-9.9,0.1-11.9,4.7s0.1,9.9,4.7,11.9c1.2,0.5,2.4,0.7,3.6,0.7
			c3.5,0,6.8-2,8.3-5.5C124.918,282.744,122.818,277.444,118.218,275.444z"/>
		<path style="fill:#2C2F33;" d="M98.018,119.544c-3.2-3.8-9-4.3-12.8-1c-3.8,3.2-4.3,9-1,12.8c1.8,2.1,4.4,3.2,6.9,3.2
			c2.1,0,4.1-0.7,5.9-2.2C100.718,129.044,101.218,123.344,98.018,119.544z"/>
		<path style="fill:#2C2F33;" d="M57.718,188.244c0.6,0.1,1.2,0.2,1.7,0.2c4.2,0,8.1-3,8.9-7.4c0.9-4.9-2.3-9.7-7.2-10.6
			c-4.9-0.9-9.7,2.3-10.6,7.2l0,0C49.618,182.544,52.818,187.344,57.718,188.244z"/>
		<path style="fill:#2C2F33;" d="M68.718,250.344c1.4,0,2.9-0.3,4.2-1c4.4-2.3,6.1-7.8,3.8-12.2c-2.3-4.4-7.8-6.1-12.2-3.8
			s-6.1,7.8-3.8,12.2C62.318,248.544,65.418,250.344,68.718,250.344z"/>
		<path style="fill:#2C2F33;" d="M438.518,398.944c0.6-5-2.9-9.5-7.9-10.1s-9.5,2.9-10.1,7.8c-0.6,5,2.9,9.5,7.8,10.1
			c0.4,0.1,0.8,0.1,1.2,0.1C434.018,406.844,437.918,403.544,438.518,398.944z"/>
		<path style="fill:#2C2F33;" d="M209.218,282.444c-5,0-9.1,4-9.1,9.1c0,5,4.1,9.1,9.1,9.1s9.1-4.1,9.1-9.1
			C218.218,286.444,214.218,282.444,209.218,282.444z"/>
		<path style="fill:#2C2F33;" d="M303.418,479.944c0,5,4,9.1,9.1,9.1c5,0,9.1-4.1,9.1-9.1s-4.1-9.1-9.1-9.1
			S303.418,474.944,303.418,479.944z"/>
		<path style="fill:#2C2F33;" d="M207.718,479.944c0,5,4,9.1,9.1,9.1c5,0,9.1-4.1,9.1-9.1s-4.1-9.1-9.1-9.1
			S207.718,474.944,207.718,479.944z"/>
		<path style="fill:#2C2F33;" d="M304.818,282.444c-5,0-9.1,4-9.1,9.1c0,5,4.1,9.1,9.1,9.1s9.1-4.1,9.1-9.1
			C313.918,286.444,309.918,282.444,304.818,282.444z"/>
		<path style="fill:#2C2F33;" d="M241.118,282.444c-5,0-9.1,4-9.1,9.1c0,5,4,9.1,9.1,9.1c5,0,9.1-4.1,9.1-9.1
			C250.118,286.444,246.118,282.444,241.118,282.444z"/>
		<path style="fill:#2C2F33;" d="M175.918,479.944c0,5,4,9.1,9.1,9.1c5,0,9.1-4.1,9.1-9.1s-4.1-9.1-9.1-9.1
			C179.918,470.844,175.918,474.944,175.918,479.944z"/>
		<path style="fill:#2C2F33;" d="M239.618,479.944c0,5,4.1,9.1,9.1,9.1s9.1-4.1,9.1-9.1s-4-9.1-9.1-9.1
			C243.718,470.844,239.618,474.944,239.618,479.944z"/>
		<path style="fill:#2C2F33;" d="M271.518,479.944c0,5,4,9.1,9.1,9.1c5,0,9-4.1,9-9.1s-4-9.1-9-9.1S271.518,474.944,271.518,479.944
			z"/>
		<path style="fill:#2C2F33;" d="M273.018,282.444c-5,0-9.1,4-9.1,9.1c0,5,4,9.1,9.1,9.1c5,0,9.1-4.1,9.1-9.1
			C282.018,286.444,278.018,282.444,273.018,282.444z"/>
		<path style="fill:#2C2F33;" d="M168.218,291.444c0,5,4.1,9.1,9.1,9.1s9.1-4.1,9.1-9.1s-4-9.1-9.1-9.1
			C172.318,282.444,168.218,286.444,168.218,291.444z"/>
		<path style="fill:#2C2F33;" d="M158.518,102.844c-0.1-5-4.3-9-9.3-8.8c-5,0.1-8.9,4.3-8.8,9.3c0.1,5,4.3,8.9,9.3,8.8
			C154.718,111.944,158.718,107.844,158.518,102.844z"/>
		<path style="fill:#2C2F33;" d="M136.418,290.644c-0.3,5,3.4,9.3,8.4,9.7c0.2,0,0.4,0,0.6,0c4.7,0,8.7-3.6,9-8.4
			c0.3-5-3.4-9.3-8.4-9.7S136.718,285.644,136.418,290.644z"/>
		<path style="fill:#2C2F33;" d="M126.818,105.944c-1.8-4.7-7-7-11.7-5.2s-7,7-5.2,11.7c1.4,3.6,4.8,5.8,8.5,5.8
			c1.1,0,2.2-0.2,3.2-0.6C126.318,115.844,128.618,110.644,126.818,105.944z"/>
		<path style="fill:#2C2F33;" d="M376.518,300.144c1.7-4.7-0.7-9.9-5.5-11.6l0,0c-4.7-1.7-9.9,0.7-11.6,5.4
			c-1.7,4.7,0.7,9.9,5.5,11.6c1,0.4,2.1,0.5,3.1,0.5C371.718,306.144,375.218,303.844,376.518,300.144z"/>
		<path style="fill:#2C2F33;" d="M336.818,282.444c-5,0-9.1,4-9.1,9s4,9.1,9,9.1c0,0,0,0,0.1,0c5,0,9-4,9.1-9
			C345.818,286.544,341.818,282.444,336.818,282.444z"/>
		<path style="fill:#2C2F33;" d="M375.018,480.544c1.3,0,2.5-0.3,3.8-0.8c4.6-2.1,6.6-7.5,4.5-12c-2.1-4.6-7.4-6.6-12-4.5
			s-6.6,7.5-4.5,12C368.318,478.544,371.618,480.544,375.018,480.544z"/>
		<path style="fill:#2C2F33;" d="M335.318,480.344c0.4,4.7,4.4,8.3,9,8.3c0.3,0,0.5,0,0.8,0c5-0.4,8.7-4.8,8.2-9.8
			c-0.4-5-4.8-8.7-9.8-8.2l0,0C338.618,470.944,334.918,475.344,335.318,480.344z"/>
		<path style="fill:#2C2F33;" d="M188.218,109.444c1.7-1.7,2.6-4,2.6-6.4s-1-4.7-2.6-6.4c-1.7-1.7-4-2.7-6.4-2.7s-4.7,1-6.4,2.7
			s-2.7,4-2.7,6.4s1,4.7,2.7,6.4c1.7,1.7,4,2.7,6.4,2.7C184.218,112.044,186.518,111.144,188.218,109.444z"/>
	</g>
</g>
<g>
</g>
<g>
</g>
<g>
</g>
<g>
</g>
<g>
</g>
<g>
</g>
<g>
</g>
<g>
</g>
<g>
</g>
<g>
</g>
<g>
</g>
<g>
</g>
<g>
</g>
<g>
</g>
<g>
</g>
</svg>
