<?xml version="1.0" encoding="UTF-8" standalone="no"?>
<svg width="1440px" height="1024px" viewBox="0 0 1440 1024" version="1.1" xmlns="http://www.w3.org/2000/svg" xmlns:xlink="http://www.w3.org/1999/xlink">
    <!-- Generator: Sketch 3.8.3 (29802) - http://www.bohemiancoding.com/sketch -->
    <title>Desktop HD</title>
    <desc>Created with Sketch.</desc>
    <defs>
        <filter x="-50%" y="-50%" width="200%" height="200%" filterUnits="objectBoundingBox" id="filter-1">
            <feGaussianBlur stdDeviation="6.04607077" in="SourceGraphic"></feGaussianBlur>
        </filter>
        <filter x="-50%" y="-50%" width="200%" height="200%" filterUnits="objectBoundingBox" id="filter-2">
            <feGaussianBlur stdDeviation="6.04607077" in="SourceGraphic"></feGaussianBlur>
        </filter>
        <filter x="-50%" y="-50%" width="200%" height="200%" filterUnits="objectBoundingBox" id="filter-3">
            <feGaussianBlur stdDeviation="6.04607077" in="SourceGraphic"></feGaussianBlur>
        </filter>
    </defs>
    <g id="Page-1" stroke="none" stroke-width="1" fill="none" fill-rule="evenodd">
        <g id="Desktop-HD">
            <g id="Real" transform="translate(-36.000000, 13.000000)">
                <g id="mountain-range" transform="translate(387.000000, 49.000000)" fill="#EFD9C1">
                    <polygon id="Triangle-1" fill-opacity="0.680000007" points="183.052365 143.482759 366.10473 438 0 438"></polygon>
                    <polygon id="Triangle-1-Copy" fill-opacity="0.680000007" points="635.013514 0 959 438 311.027027 438"></polygon>
                    <polygon id="Triangle-1-Copy-2" fill-opacity="0.720000029" points="364.484797 219 547.537162 438 181.432432 438"></polygon>
                </g>
                <g id="tree" transform="translate(198.000000, 301.000000)">
                    <rect id="Rectangle-15" fill="#C7D8C6" x="0" y="0" width="80" height="145.5" rx="40"></rect>
                    <rect id="Rectangle-3-Copy-2" fill="#CCCBC6" transform="translate(40.000000, 108.000000) scale(-1, 1) translate(-40.000000, -108.000000) " x="34.7169811" y="30" width="10.5660377" height="156" rx="5.28301887"></rect>
                    <rect id="Rectangle-3-Copy-4" fill="#CCCBC6" transform="translate(26.438928, 107.642350) scale(-1, 1) rotate(48.000000) translate(-26.438928, -107.642350) " x="21.155909" y="87.1069872" width="10.5660377" height="41.0707263" rx="5.28301887"></rect>
                    <rect id="Rectangle-3-Copy-5" fill="#CCCBC6" transform="translate(50.652253, 63.460350) scale(-1, 1) rotate(-34.000000) translate(-50.652253, -63.460350) " x="45.3692343" y="42.9249872" width="10.5660377" height="41.0707263" rx="5.28301887"></rect>
                </g>
                <text id="PRUDHVI" font-family="Lato-Black, Lato" font-size="100" font-weight="700" letter-spacing="3.08333349" fill="#4A4A4A">
                    <tspan x="360" y="367">PRUDHVI</tspan>
                </text>
                <text id="RAMPEY" font-family="Lato-Light, Lato" font-size="100" font-weight="300" letter-spacing="3.08333349" fill="#4A4A4A">
                    <tspan x="866" y="367">RAMPEY</tspan>
                </text>
                <path d="M1155.91615,128 L1154.55788,128 C1154.81588,127.719599 1155.07053,127.436008 1155.32177,127.149292 C1155.51591,127.435138 1155.71406,127.718727 1155.91615,128 Z M1207,145.76734 L1207,146 L1205.87839,146 C1202.54128,146.654401 1199.06756,147 1195.5,147 C1191.93244,147 1188.45872,146.654401 1185.12161,146 L1032,146 C1016.53603,146 1004,131.449254 1004,113.5 C1004,95.5507456 1016.53603,81 1032,81 C1037.70104,81 1043.00412,82.9776553 1047.42783,86.3741613 C1053.42354,72.5820406 1066.64872,63 1082,63 C1083.71261,63 1085.39875,63.1192569 1087.05135,63.350312 C1095.50712,54.5022508 1107.36784,49 1120.5,49 C1139.87403,49 1156.4807,60.9758875 1163.46917,78.0031623 C1171.80849,71.1844802 1183.08617,67 1195.5,67 C1221.18124,67 1242,84.90861 1242,107 C1242,125.677095 1227.11916,141.364422 1207,145.76734 Z" id="Cloud-1" fill-opacity="0.390000015" fill="#A9B7C0"></path>
                <path d="M513.916148,79 L512.55788,79 C512.815879,78.7195994 513.07053,78.4360083 513.321767,78.1492918 C513.515912,78.4351385 513.714061,78.7187269 513.916148,79 Z M565,96.7673405 L565,97 L563.878394,97 C560.541282,97.6544012 557.067559,98 553.5,98 C549.932441,98 546.458718,97.6544012 543.121606,97 L390,97 C374.536027,97 362,82.4492544 362,64.5 C362,46.5507456 374.536027,32 390,32 C395.701036,32 401.004121,33.9776553 405.427826,37.3741613 C411.423537,23.5820406 424.648716,14 440,14 C441.712606,14 443.398751,14.1192569 445.051349,14.350312 C453.507119,5.50225076 465.367835,0 478.5,0 C497.874031,0 514.4807,11.9758875 521.469172,29.0031623 C529.808493,22.1844802 541.086169,18 553.5,18 C579.181241,18 600,35.90861 600,58 C600,76.6770954 585.119161,92.3644219 565,96.7673405 Z" id="Cloud-1-Copy-2" fill-opacity="0.390000015" fill="#A9B7C0"></path>
                <path d="M151.916148,249 L150.55788,249 C150.815879,248.719599 151.07053,248.436008 151.321767,248.149292 C151.515912,248.435138 151.714061,248.718727 151.916148,249 Z M203,266.76734 L203,267 L201.878394,267 C198.541282,267.654401 195.067559,268 191.5,268 C187.932441,268 184.458718,267.654401 181.121606,267 L28,267 C12.536027,267 0,252.449254 0,234.5 C0,216.550746 12.536027,202 28,202 C33.7010357,202 39.0041214,203.977655 43.4278256,207.374161 C49.4235369,193.582041 62.6487158,184 78,184 C79.7126064,184 81.3987515,184.119257 83.0513494,184.350312 C91.5071186,175.502251 103.367835,170 116.5,170 C135.874031,170 152.4807,181.975887 159.469172,199.003162 C167.808493,192.18448 179.086169,188 191.5,188 C217.181241,188 238,205.90861 238,228 C238,246.677095 223.119161,262.364422 203,266.76734 Z" id="Cloud-1-Copy" fill-opacity="0.390000015" fill="#A9B7C0"></path>
            </g>
            <g id="Reflection" opacity="0.419999987" transform="translate(702.000000, 743.500000) scale(1, -1) translate(-702.000000, -743.500000) translate(-36.000000, 500.000000)">
                <g id="mountain-range" transform="translate(387.000000, 49.000000)" fill="#EFD9C1">
                    <polygon id="Triangle-1" fill-opacity="0.680000007" points="183.052365 143.482759 366.10473 438 0 438"></polygon>
                    <polygon id="Triangle-1-Copy" fill-opacity="0.680000007" points="635.013514 0 959 438 311.027027 438"></polygon>
                    <polygon id="Triangle-1-Copy-2" fill-opacity="0.720000029" points="364.484797 219 547.537162 438 181.432432 438"></polygon>
                </g>
                <g id="tree" transform="translate(198.000000, 301.000000)">
                    <rect id="Rectangle-15" fill="#C7D8C6" x="0" y="0" width="80" height="145.5" rx="40"></rect>
                    <rect id="Rectangle-3-Copy-2" fill="#CCCBC6" transform="translate(40.000000, 108.000000) scale(-1, 1) translate(-40.000000, -108.000000) " x="34.7169811" y="30" width="10.5660377" height="156" rx="5.28301887"></rect>
                    <rect id="Rectangle-3-Copy-4" fill="#CCCBC6" transform="translate(26.438928, 107.642350) scale(-1, 1) rotate(48.000000) translate(-26.438928, -107.642350) " x="21.155909" y="87.1069872" width="10.5660377" height="41.0707263" rx="5.28301887"></rect>
                    <rect id="Rectangle-3-Copy-5" fill="#CCCBC6" transform="translate(50.652253, 63.460350) scale(-1, 1) rotate(-34.000000) translate(-50.652253, -63.460350) " x="45.3692343" y="42.9249872" width="10.5660377" height="41.0707263" rx="5.28301887"></rect>
                </g>
                <text id="PRUDHVI" font-family="Lato-Black, Lato" font-size="100" font-weight="700" letter-spacing="3.08333349" fill="#4A4A4A">
                    <tspan x="360" y="367">PRUDHVI</tspan>
                </text>
                <text id="RAMPEY" font-family="Lato-Light, Lato" font-size="100" font-weight="300" letter-spacing="3.08333349" fill="#4A4A4A">
                    <tspan x="866" y="367">RAMPEY</tspan>
                </text>
                <path d="M1155.91615,128 L1154.55788,128 C1154.81588,127.719599 1155.07053,127.436008 1155.32177,127.149292 C1155.51591,127.435138 1155.71406,127.718727 1155.91615,128 Z M1207,145.76734 L1207,146 L1205.87839,146 C1202.54128,146.654401 1199.06756,147 1195.5,147 C1191.93244,147 1188.45872,146.654401 1185.12161,146 L1032,146 C1016.53603,146 1004,131.449254 1004,113.5 C1004,95.5507456 1016.53603,81 1032,81 C1037.70104,81 1043.00412,82.9776553 1047.42783,86.3741613 C1053.42354,72.5820406 1066.64872,63 1082,63 C1083.71261,63 1085.39875,63.1192569 1087.05135,63.350312 C1095.50712,54.5022508 1107.36784,49 1120.5,49 C1139.87403,49 1156.4807,60.9758875 1163.46917,78.0031623 C1171.80849,71.1844802 1183.08617,67 1195.5,67 C1221.18124,67 1242,84.90861 1242,107 C1242,125.677095 1227.11916,141.364422 1207,145.76734 Z" id="Cloud-1" fill-opacity="0.390000015" fill="#A9B7C0" filter="url(#filter-1)"></path>
                <path d="M513.916148,79 L512.55788,79 C512.815879,78.7195994 513.07053,78.4360083 513.321767,78.1492918 C513.515912,78.4351385 513.714061,78.7187269 513.916148,79 Z M565,96.7673405 L565,97 L563.878394,97 C560.541282,97.6544012 557.067559,98 553.5,98 C549.932441,98 546.458718,97.6544012 543.121606,97 L390,97 C374.536027,97 362,82.4492544 362,64.5 C362,46.5507456 374.536027,32 390,32 C395.701036,32 401.004121,33.9776553 405.427826,37.3741613 C411.423537,23.5820406 424.648716,14 440,14 C441.712606,14 443.398751,14.1192569 445.051349,14.350312 C453.507119,5.50225076 465.367835,0 478.5,0 C497.874031,0 514.4807,11.9758875 521.469172,29.0031623 C529.808493,22.1844802 541.086169,18 553.5,18 C579.181241,18 600,35.90861 600,58 C600,76.6770954 585.119161,92.3644219 565,96.7673405 Z" id="Cloud-1-Copy-2" fill-opacity="0.390000015" fill="#A9B7C0" filter="url(#filter-2)"></path>
                <path d="M151.916148,249 L150.55788,249 C150.815879,248.719599 151.07053,248.436008 151.321767,248.149292 C151.515912,248.435138 151.714061,248.718727 151.916148,249 Z M203,266.76734 L203,267 L201.878394,267 C198.541282,267.654401 195.067559,268 191.5,268 C187.932441,268 184.458718,267.654401 181.121606,267 L28,267 C12.536027,267 0,252.449254 0,234.5 C0,216.550746 12.536027,202 28,202 C33.7010357,202 39.0041214,203.977655 43.4278256,207.374161 C49.4235369,193.582041 62.6487158,184 78,184 C79.7126064,184 81.3987515,184.119257 83.0513494,184.350312 C91.5071186,175.502251 103.367835,170 116.5,170 C135.874031,170 152.4807,181.975887 159.469172,199.003162 C167.808493,192.18448 179.086169,188 191.5,188 C217.181241,188 238,205.90861 238,228 C238,246.677095 223.119161,262.364422 203,266.76734 Z" id="Cloud-1-Copy" fill-opacity="0.390000015" fill="#A9B7C0" filter="url(#filter-3)"></path>
            </g>
            <ellipse id="Oval-25-Copy-2" fill="#A9B7C0" cx="1440.5" cy="13" rx="108.5" ry="112"></ellipse>
            <ellipse id="Oval-25-Copy-3" fill="#4A4A4A" cx="1416.5" cy="1027" rx="108.5" ry="112"></ellipse>
            <ellipse id="Oval-25-Copy" fill="#9B9B9B" cx="-0.5" cy="27.5" rx="108.5" ry="97.5"></ellipse>
        </g>
    </g>
</svg>