<?xml version="1.0" encoding="UTF-8" standalone="no"?>
<svg width="421px" height="465px" viewBox="0 0 421 465" version="1.1" xmlns="http://www.w3.org/2000/svg" xmlns:xlink="http://www.w3.org/1999/xlink">
    <!-- Generator: Sketch 3.8.3 (29802) - http://www.bohemiancoding.com/sketch -->
    <title>Resume icon</title>
    <desc>Created with Sketch.</desc>
    <defs>
        <rect id="path-1" x="0" y="0" width="421" height="465" rx="30"></rect>
        <mask id="mask-2" maskContentUnits="userSpaceOnUse" maskUnits="objectBoundingBox" x="0" y="0" width="421" height="465" fill="white">
            <use xlink:href="#path-1"></use>
        </mask>
    </defs>
    <g id="Page-1" stroke="none" stroke-width="1" fill="none" fill-rule="evenodd">
        <g id="CV" transform="translate(-685.000000, -361.000000)">
            <g id="Web-page">
                <g id="Content" transform="translate(0.000000, 75.000000)">
                    <g id="Nav-pane"></g>
                </g>
            </g>
            <g id="Resume-icon" transform="translate(685.000000, 361.000000)">
                <use id="Rectangle-1" stroke="#000000" mask="url(#mask-2)" stroke-width="16" xlink:href="#path-1"></use>
                <path d="M69,136 C83.9116882,136 96,123.911688 96,109 C96,94.0883118 83.9116882,82 69,82 C54.0883118,82 42,94.0883118 42,109 C42,123.911688 54.0883118,136 69,136 Z" id="Oval-1" stroke="#000000" stroke-width="8"></path>
                <path d="M69,367 C83.9116882,367 96,354.911688 96,340 C96,325.088312 83.9116882,313 69,313 C54.0883118,313 42,325.088312 42,340 C42,354.911688 54.0883118,367 69,367 Z" id="Oval-1-Copy" stroke="#000000" stroke-width="8"></path>
                <circle id="Oval-1-Copy-2" stroke="#000000" stroke-width="8" cx="69" cy="224" r="27"></circle>
                <rect id="Rectangle-2" fill="#000000" x="111" y="101" width="267" height="15" rx="7.5"></rect>
                <rect id="Rectangle-2-Copy" fill="#000000" x="113" y="332" width="267" height="15" rx="7.5"></rect>
                <rect id="Rectangle-2-Copy-2" fill="#000000" x="111" y="215" width="267" height="15" rx="7.5"></rect>
            </g>
        </g>
    </g>
</svg>